<?xml version="1.0" standalone="no"?>
<!DOCTYPE svg PUBLIC "-//W3C//DTD SVG 20010904//EN"
 "http://www.w3.org/TR/2001/REC-SVG-20010904/DTD/svg10.dtd">
<svg version="1.0" xmlns="http://www.w3.org/2000/svg"
 width="1212.000000pt" height="1212.000000pt" viewBox="0 0 1212.000000 1212.000000"
 preserveAspectRatio="xMidYMid meet">
<metadata>
Created by potrace 1.11, written by Peter Selinger 2001-2013
</metadata>
<g transform="translate(0.000000,1212.000000) scale(0.100000,-0.100000)"
fill="#000000" stroke="none">
<path d="M7993 10370 c-57 -15 -125 -50 -171 -89 -12 -11 -57 -71 -100 -135
-228 -338 -535 -691 -1042 -1196 -232 -232 -340 -335 -555 -531 -144 -132
-359 -316 -565 -484 -193 -158 -175 -143 -245 -195 -33 -25 -62 -47 -65 -50
-3 -3 -39 -30 -80 -60 -41 -30 -77 -57 -80 -60 -17 -18 -318 -221 -450 -304
-140 -88 -193 -118 -364 -207 -161 -83 -206 -122 -254 -219 -35 -70 -37 -79
-37 -170 0 -85 3 -102 31 -160 81 -171 256 -255 446 -215 118 25 688 359 988
579 248 181 490 367 635 487 70 58 295 248 320 270 105 92 221 195 225 199 3
3 57 53 120 110 416 379 840 817 1235 1274 118 137 399 510 414 551 2 5 12 21
21 35 30 44 52 128 51 197 -2 254 -235 436 -478 373z"/>
<path d="M9586 9838 c-107 -29 -174 -83 -256 -208 -191 -289 -564 -697 -980
-1070 -52 -47 -117 -105 -145 -131 -27 -25 -111 -97 -185 -159 -74 -63 -140
-119 -146 -125 -140 -126 -835 -665 -1234 -957 -794 -580 -1687 -1159 -1826
-1184 -190 -34 -326 -194 -326 -379 1 -121 44 -220 129 -295 119 -105 267
-126 413 -60 135 62 514 271 617 341 23 16 44 29 47 29 29 0 1270 820 1316
870 3 3 13 10 22 15 129 77 966 715 1253 955 76 64 149 124 195 164 25 21 54
46 65 55 18 15 254 221 281 246 240 215 630 606 779 780 33 38 65 75 70 81
119 134 310 395 358 491 27 52 46 141 41 184 -11 84 -18 110 -41 158 -49 100
-173 194 -272 206 -89 12 -111 11 -175 -7z"/>
<path d="M10240 8197 c-82 -34 -81 -34 -213 -163 -166 -162 -283 -261 -542
-459 -430 -328 -1124 -809 -1760 -1220 -977 -631 -1767 -1094 -2268 -1330 -92
-43 -139 -82 -182 -150 -47 -74 -63 -130 -60 -216 3 -88 25 -157 72 -221 44
-61 82 -92 151 -125 48 -22 72 -26 147 -27 103 -1 117 2 205 40 61 27 331 162
430 216 25 13 81 44 125 68 223 121 867 503 1215 720 448 279 1280 826 1616
1063 146 102 271 190 324 227 19 14 37 27 40 31 3 3 28 21 55 40 28 18 52 36
55 39 3 3 95 73 204 155 110 83 211 159 225 170 214 162 560 478 617 564 103
156 74 379 -64 502 -74 65 -141 91 -247 96 -77 3 -98 0 -145 -20z"/>
<path d="M1245 8066 c-204 -65 -311 -249 -270 -466 9 -52 42 -112 92 -169 60
-69 144 -109 264 -126 122 -17 153 -23 219 -40 376 -99 699 -331 994 -715 72
-94 205 -291 246 -366 11 -22 41 -75 65 -119 45 -80 189 -369 260 -520 106
-228 350 -711 418 -828 14 -23 34 -59 46 -80 50 -89 61 -108 87 -149 97 -158
220 -341 306 -455 444 -591 913 -902 1448 -960 148 -16 436 -4 550 23 14 3 36
7 50 9 116 16 573 164 738 241 29 13 55 24 58 24 3 0 43 18 90 40 47 22 88 40
91 40 3 0 107 51 232 113 194 98 294 151 549 293 83 47 483 286 557 333 22 14
49 31 60 38 39 23 141 88 235 148 52 34 133 86 180 116 112 72 660 438 780
521 52 36 140 96 195 134 55 38 149 103 208 144 99 70 542 380 596 418 95 67
151 115 183 157 132 174 84 437 -102 554 -92 59 -215 76 -321 45 -47 -14 -179
-94 -261 -158 -14 -12 -88 -64 -163 -116 -75 -52 -162 -113 -193 -136 -273
-194 -1046 -718 -1368 -927 -211 -137 -485 -307 -494 -307 -6 0 -10 -4 -10 -8
0 -5 -15 -16 -32 -25 -36 -19 -35 -18 -228 -133 -74 -45 -151 -89 -170 -99
-19 -10 -37 -21 -40 -24 -3 -3 -21 -14 -40 -25 -19 -10 -57 -30 -85 -46 -176
-97 -378 -202 -494 -257 -148 -70 -376 -171 -401 -178 -3 0 -41 -15 -85 -32
-180 -70 -382 -126 -505 -140 -122 -14 -288 -7 -385 16 -465 114 -899 624
-1409 1656 -57 116 -125 257 -151 315 -73 163 -256 532 -330 663 -141 252
-292 478 -430 642 -27 33 -61 73 -75 89 -69 83 -298 300 -363 345 -12 8 -28
21 -36 29 -7 7 -70 51 -140 96 -223 148 -510 271 -746 322 -11 2 -31 6 -45 9
-29 6 -108 21 -160 30 -77 13 -226 13 -265 1z"/>
<path d="M10162 4760 c-299 -63 -455 -394 -318 -672 58 -117 187 -215 321
-244 38 -9 165 -5 205 6 179 48 319 198 345 371 37 235 -91 448 -313 525 -56
19 -180 26 -240 14z"/>
<path d="M6709 2825 c-330 -111 -424 -523 -177 -769 97 -95 208 -139 343 -135
403 14 597 508 312 791 -128 127 -310 170 -478 113z"/>
</g>
</svg>
